<svg id="Layer_1" data-name="Layer 1" xmlns="http://www.w3.org/2000/svg" viewBox="0 0 743.71 1362.52"><defs><style>.cls-1{fill:#fff;}</style></defs><path class="cls-1" d="M1227.31,990.31c-9.91-8.45-16.18-13.1-21.64-18.56q-275-274.87-549.57-550.26a99.15,99.15,0,0,1-24.49-42.27c-6.44-23.93,8-49.68,29.63-62.05a61.62,61.62,0,0,1,69,5c6,4.78,11.34,10.51,16.81,16Q1046,637.05,1344.84,936c38.42,38.43,38.56,69.71.55,107.72q-301.61,301.68-603.13,603.45c-19.25,19.28-40.48,29.61-67.76,21.47a61.38,61.38,0,0,1-31.22-96.79c4.71-6.09,10.48-11.38,15.94-16.84q274.21-274.34,548.54-548.57C1212.71,1001.48,1218.58,997.46,1227.31,990.31Z" transform="translate(-630.07 -308.91)"/></svg>