<?xml version="1.0" encoding="utf-8"?>
<!-- Generator: Adobe Illustrator 25.2.1, SVG Export Plug-In . SVG Version: 6.00 Build 0)  -->
<svg version="1.1" id="Layer_1" xmlns="http://www.w3.org/2000/svg" xmlns:xlink="http://www.w3.org/1999/xlink" x="0px" y="0px"
	 viewBox="0 0 800 800" style="enable-background:new 0 0 800 800;" xml:space="preserve">
<style type="text/css">
	.st0{fill:#FFFFFF;}
</style>
<path class="st0" d="M400,68C216.7,68,66.7,217.7,66.7,402c0,166.7,122,305,281.3,330V498.7h-84.7V402H348v-73.7
	c0-83.7,49.7-129.7,126-129.7c36.3,0,74.3,6.3,74.3,6.3v82.3h-42c-41.3,0-54.3,25.7-54.3,52V402h92.7l-15,96.7H452V732
	c78.5-12.4,150.1-52.5,201.7-113c51.6-60.5,79.9-137.5,79.7-217C733.3,217.7,583.3,68,400,68z"/>
</svg>
