<?xml version="1.0" encoding="utf-8"?>
<!-- Generator: Adobe Illustrator 25.2.1, SVG Export Plug-In . SVG Version: 6.00 Build 0)  -->
<svg version="1.1" id="Layer_1" xmlns="http://www.w3.org/2000/svg" xmlns:xlink="http://www.w3.org/1999/xlink" x="0px" y="0px"
	 viewBox="0 0 2000 2000" style="enable-background:new 0 0 2000 2000;" xml:space="preserve">
<style type="text/css">
	.st0{fill:#FFFFFF;}
</style>
<path class="st0" d="M1227.3,990.3c-9.9-8.4-16.2-13.1-21.6-18.6c-183.4-183.2-366.8-366.4-549.6-550.3
	c-11.2-11.3-20.4-27-24.5-42.3c-6.4-23.9,8-49.7,29.6-62.1c21.9-12.5,49.1-10.7,69,5c6,4.8,11.3,10.5,16.8,16
	c199.3,199.3,398.5,398.5,597.8,597.8c38.4,38.4,38.6,69.7,0.6,107.7c-201.1,201.1-402.2,402.2-603.1,603.4
	c-19.2,19.3-40.5,29.6-67.8,21.5c-41.9-12.5-57.9-62.2-31.2-96.8c4.7-6.1,10.5-11.4,15.9-16.8c182.8-182.9,365.6-365.8,548.5-548.6
	C1212.7,1001.5,1218.6,997.5,1227.3,990.3z"/>
</svg>
