<?xml version="1.0" encoding="utf-8"?>
<!-- Generator: Adobe Illustrator 25.2.1, SVG Export Plug-In . SVG Version: 6.00 Build 0)  -->
<svg version="1.1" id="Layer_1" xmlns="http://www.w3.org/2000/svg" xmlns:xlink="http://www.w3.org/1999/xlink" x="0px" y="0px"
	 viewBox="0 0 2000 2000" style="enable-background:new 0 0 2000 2000;" xml:space="preserve">
<path d="M1826.9,1831.8c-160.1-158.4-320.1-316.8-475.6-470.6c-68.1,37.7-133.6,83.1-205.5,112.4
	c-396.4,161.4-843.5-89.8-917.6-512.3c-1-5.8-4.2-11.2-6.4-16.8c0-66.5,0-133.1,0-199.6c2.4-9.3,5.2-18.5,7.2-27.9
	c51.4-239.5,188.8-409,414.9-503.6c49.3-20.6,103.1-30.5,154.8-45.3c66.6,0,133.1,0,199.7,0c60.5,19.2,123.8,32.5,181.2,58.7
	c405.2,184.7,524.4,699.3,243.9,1045.3c-5.3,6.6-10.3,13.5-17.6,23.2c159.2,158.6,317.7,316.4,476.6,474.7
	c-17.4,22.3-32.8,42-48.3,61.8C1831.8,1831.8,1829.4,1831.8,1826.9,1831.8z M1495.2,844.8c-0.6-330.5-266.5-595.2-597.5-594.8
	c-326.3,0.4-593.9,269.6-593,596.8c0.9,327.1,269,593.6,596.7,593C1229.5,1439.1,1495.8,1172.3,1495.2,844.8z"/>
</svg>
