<?xml version="1.0" encoding="utf-8"?>
<!-- Generator: Adobe Illustrator 25.2.1, SVG Export Plug-In . SVG Version: 6.00 Build 0)  -->
<svg version="1.1" id="Layer_1" xmlns="http://www.w3.org/2000/svg" xmlns:xlink="http://www.w3.org/1999/xlink" x="0px" y="0px"
	 viewBox="0 0 800 800" style="enable-background:new 0 0 800 800;" xml:space="preserve">
<style type="text/css">
	.st0{fill-rule:evenodd;clip-rule:evenodd;fill:#FFFFFF;}
</style>
<desc>Created with Sketch.</desc>
<g id="Page-1">
	<g id="Dribbble-Light-Preview" transform="translate(-60.000000, -7521.000000)">
		<g id="icons" transform="translate(56.000000, 160.000000)">
			<path id="twitter-_x5B__x23_154_x5D_" class="st0" d="M255.6,8081c301.9,0,467-246.2,467-459.8c0-7,0-14-0.5-20.9
				c32.1-22.9,59.8-51.2,81.9-83.7c-29.9,13.1-61.7,21.7-94.2,25.4c34.2-20.2,59.9-51.9,72.2-89.4c-32.2,18.8-67.5,32.1-104.2,39.2
				c-62.2-65.1-166.1-68.2-232.2-7c-42.6,39.5-60.7,98.3-47.5,154.4c-132-6.5-254.9-67.9-338.3-168.8
				c-43.6,73.8-21.3,168.3,50.8,215.7c-26.1-0.7-51.7-7.7-74.5-20.2v2.1c0,76.9,55.1,143.1,131.7,158.4c-24.2,6.5-49.5,7.4-74.1,2.8
				c21.5,65.9,83.1,111,153.3,112.2c-58.1,45-129.9,69.4-203.8,69.3c-13,0-26.1-0.8-39.1-2.3c75.1,47.4,162.4,72.6,251.6,72.5"/>
		</g>
	</g>
</g>
</svg>
