<?xml version="1.0" encoding="utf-8"?>
<!-- Generator: Adobe Illustrator 25.2.1, SVG Export Plug-In . SVG Version: 6.00 Build 0)  -->
<svg version="1.1" id="Layer_1" xmlns="http://www.w3.org/2000/svg" xmlns:xlink="http://www.w3.org/1999/xlink" x="0px" y="0px"
	 viewBox="0 0 800 800" style="enable-background:new 0 0 800 800;" xml:space="preserve">
<style type="text/css">
	.st0{fill:#FFFFFF;}
</style>
<path class="st0" d="M400,598.3c-28.1,0-50.8,22.8-50.8,50.8c0,28.1,22.8,50.8,50.8,50.8V598.3z M400.5,700
	c28.1,0,50.8-22.8,50.8-50.8c0-28.1-22.8-50.8-50.8-50.8V700z M536.8,498.7c20.8,18.9,52.9,17.4,71.8-3.4
	c18.9-20.8,17.4-52.9-3.4-71.8L536.8,498.7z M707.7,310.6c20.8,18.9,52.9,17.4,71.8-3.4c18.9-20.8,17.4-52.9-3.4-71.8L707.7,310.6z
	 M194.8,423.5c-20.8,18.9-22.3,51-3.4,71.8c18.9,20.8,51,22.3,71.8,3.4L194.8,423.5z M23.9,235.4c-20.8,18.9-22.3,51-3.4,71.8
	c18.9,20.8,51,22.3,71.8,3.4L23.9,235.4z M400,700h0.5V598.3H400V700z M400,445.8c52.7,0,100.6,20,136.8,52.9l68.4-75.2
	C551,374.2,479,344.2,400,344.2V445.8z M400,191.7c118.5,0,226.4,45,307.7,119l68.4-75.2C676.9,145.1,544.8,90,400,90V191.7z
	 M263.2,498.7c36.2-32.9,84.1-52.9,136.8-52.9V344.2c-79,0-151,30.1-205.2,79.3L263.2,498.7z M92.3,310.6
	c81.3-74,189.2-119,307.7-119V90c-144.8,0-276.9,55.1-376.1,145.4L92.3,310.6z"/>
</svg>
