<?xml version="1.0" encoding="utf-8"?>
<!-- Generator: Adobe Illustrator 25.2.1, SVG Export Plug-In . SVG Version: 6.00 Build 0)  -->
<svg version="1.1" id="Layer_1" xmlns="http://www.w3.org/2000/svg" xmlns:xlink="http://www.w3.org/1999/xlink" x="0px" y="0px"
	 viewBox="0 0 800 800" style="enable-background:new 0 0 800 800;" xml:space="preserve">
<style type="text/css">
	.st0{fill-rule:evenodd;clip-rule:evenodd;fill:#FFFFFF;}
</style>
<desc>Created with Sketch.</desc>
<g id="Page-1">
	<g id="Dribbble-Light-Preview" transform="translate(-300.000000, -7442.000000)">
		<g id="icons" transform="translate(56.000000, 160.000000)">
			<path id="youtube-_x5B__x23_168_x5D_" class="st0" d="M563.5,7785.4V7561c79.7,37.5,141.4,73.7,214.4,112.8
				C717.7,7707.1,643.2,7744.6,563.5,7785.4 M1007.6,7449.3c-13.7-18.1-37.2-32.2-62.1-36.9c-73.3-13.9-530.7-13.9-604,0
				c-20,3.8-37.8,12.8-53.1,26.9c-64.5,59.8-44.3,380.7-28.7,432.7c6.5,22.5,15,38.7,25.6,49.4c13.7,14.1,32.5,23.8,54,28.1
				c60.4,12.5,371.3,19.5,604.9,1.9c21.5-3.8,40.6-13.8,55.6-28.4C1059.4,7863.4,1055.4,7524.5,1007.6,7449.3"/>
		</g>
	</g>
</g>
</svg>
